<svg width="222" height="328" viewBox="0 0 222 328" fill="none" xmlns="http://www.w3.org/20 00/svg">
<rect width="222" height="328" rx="15" fill="#C2FC4A"/>
<rect x="33.9219" y="68.6562" width="158.438" height="13.2031" fill="#212121"/>
<path d="M98.0951 19.375V23.75H103.97V26.525H98.0951V31.15H104.72V34H94.5951V16.525H104.72V19.375H98.0951ZM126.926 16.55V34H123.426V22.65L118.751 34H116.101L111.401 22.65V34H107.901V16.55H111.876L117.426 29.525L122.976 16.55H126.926Z" fill="#212121"/>
<rect x="34.4219" y="82.3594" width="157.438" height="210.25" stroke="#212121"/>
<line x1="60.8281" y1="84.5" x2="60.8281" y2="290.469" stroke="#212121"/>
<line x1="95.1562" y1="84.5" x2="95.1562" y2="290.469" stroke="#212121"/>
<line x1="129.484" y1="84.5" x2="129.484" y2="290.469" stroke="#212121"/>
<line x1="163.812" y1="84.5" x2="163.812" y2="290.469" stroke="#212121"/>
<line x1="33.9219" y1="120.969" x2="192.359" y2="120.969" stroke="#212121"/>
<line x1="33.9219" y1="165.859" x2="192.359" y2="165.859" stroke="#212121"/>
<line x1="33.9219" y1="210.75" x2="192.359" y2="210.75" stroke="#212121"/>
<line x1="33.9219" y1="255.641" x2="192.359" y2="255.641" stroke="#212121"/>
<circle cx="32.6016" cy="54.1328" r="6.60156" fill="#212121"/>
<circle cx="61.6484" cy="146.555" r="6.60156" fill="#212121"/>
<circle cx="95.9766" cy="146.555" r="6.60156" fill="#212121"/>
<circle cx="130.305" cy="54.1328" r="6.60156" fill="#212121"/>
<circle cx="161.992" cy="54.1328" r="6.60156" fill="#212121"/>
<circle cx="188.398" cy="54.1328" r="6.60156" fill="#212121"/>
</svg>
